<svg width="24" height="24" viewBox="0 0 24 24" fill="none" xmlns="http://www.w3.org/2000/svg">
<path d="M8.03687 2.01562C7.48487 2.01562 7.03687 2.46363 7.03687 3.01562C4.82587 3.01562 3.00586 4.80862 3.00586 7.01562V9.01562L3.03687 17.0156C3.03687 19.2216 4.82787 21.0156 7.03687 21.0156H17.0369C19.2459 21.0156 21.0369 19.2246 21.0369 17.0156L21.0059 9.01562V7.01562C21.0059 4.80463 19.2439 3.01562 17.0369 3.01562C17.0369 2.46363 16.5899 2.01562 16.0369 2.01562C15.4849 2.01562 15.0369 2.46363 15.0369 3.01562H9.03687C9.03687 2.46363 8.58987 2.01562 8.03687 2.01562ZM7.03687 5.01562C7.03687 5.56763 7.48487 6.01562 8.03687 6.01562C8.58987 6.01562 9.03687 5.56763 9.03687 5.01562H15.0369C15.0369 5.56763 15.4849 6.01562 16.0369 6.01562C16.5899 6.01562 17.0369 5.56763 17.0369 5.01562C18.1339 5.01562 19.0059 5.90363 19.0059 7.01562V8.01562C17.0819 8.01562 6.92986 8.01562 5.00586 8.01562V7.01562C5.00586 5.91862 5.92487 5.01562 7.03687 5.01562ZM5.00586 10.0156C6.92986 10.0156 17.0819 10.0156 19.0059 10.0156L19.0369 17.0156C19.0369 18.1166 18.1419 19.0156 17.0369 19.0156H7.03687C5.93287 19.0156 5.03687 18.1206 5.03687 17.0156L5.00586 10.0156Z" fill="#2A343D"/>
</svg>
