<svg width="25" height="24" viewBox="0 0 25 24" fill="none" xmlns="http://www.w3.org/2000/svg">
<path d="M6.49805 2.99219C4.84105 2.99219 3.49805 4.33529 3.49805 5.99219V7.99219V16.9922C3.49805 19.2012 5.28905 20.9922 7.49805 20.9922H17.4981C19.7071 20.9922 21.4981 19.2012 21.4981 16.9922V7.99219C21.4981 7.43989 21.0501 6.99219 20.4981 6.99219C20.4981 6.99219 17.5951 6.99219 15.4981 6.99219C14.7431 6.99219 14.5001 6.74729 13.9041 5.55469C13.0011 3.74729 12.2431 2.99219 10.4981 2.99219H6.49805ZM6.49805 4.99219H10.4981C11.2531 4.99219 11.4961 5.23709 12.0921 6.42969C12.2221 6.69079 12.2721 6.77579 12.4001 6.99389C8.95406 6.99389 6.48305 6.99219 5.49805 6.99219V5.99219C5.49805 5.43989 5.94605 4.99219 6.49805 4.99219Z" fill="#F8DA72"/>
</svg>
