<svg width="25" height="24" viewBox="0 0 25 24" fill="none" xmlns="http://www.w3.org/2000/svg">
<path d="M6.51368 3.99805C4.30467 3.99805 2.51367 5.78905 2.51367 7.99804V15.998C2.51367 18.207 4.30467 19.998 6.51368 19.998H18.5137C20.7227 19.998 22.5137 18.207 22.5137 15.998V7.99804C22.5137 5.78905 20.7227 3.99805 18.5137 3.99805H6.51368ZM6.51368 5.99804H18.5137C19.5217 5.99804 20.3547 6.73805 20.4927 7.70805C19.5347 8.60105 18.1107 9.69704 17.1697 10.373C15.0047 11.928 13.0997 12.998 12.5137 12.998C11.9277 12.998 10.0227 11.929 7.85767 10.373C6.91667 9.69704 5.99168 8.96604 5.29468 8.37304C4.99768 8.12004 4.77767 7.91604 4.60767 7.74804C4.74567 6.77804 5.50568 5.99804 6.51368 5.99804ZM4.52368 10.352C7.06169 12.405 10.7807 14.986 12.5137 14.998C13.6427 15.006 15.5737 13.928 17.5437 12.567C18.5627 11.862 19.6967 11.025 20.5147 10.338L20.5137 15.998C20.5137 17.103 19.6187 17.998 18.5137 17.998H6.51368C5.40868 17.998 4.51367 17.103 4.51367 15.998L4.52368 10.352Z" fill="#2A343D"/>
</svg>
