<svg width="390" height="44" viewBox="0 0 390 44" fill="none" xmlns="http://www.w3.org/2000/svg">
<path d="M323.001 20.1001C325.537 20.1002 327.976 21.0804 329.814 22.838C329.953 22.9736 330.174 22.9719 330.31 22.8341L331.633 21.4911C331.702 21.4212 331.741 21.3265 331.74 21.228C331.739 21.1295 331.7 21.0352 331.63 20.9662C326.806 16.316 319.196 16.316 314.372 20.9662C314.302 21.0352 314.262 21.1294 314.262 21.2279C314.261 21.3264 314.299 21.4211 314.368 21.4911L315.692 22.8341C315.828 22.9721 316.049 22.9739 316.188 22.838C318.026 21.0802 320.465 20.1001 323.001 20.1001ZM323.001 24.4695C324.395 24.4695 325.738 24.9904 326.771 25.9311C326.911 26.0646 327.131 26.0618 327.267 25.9246L328.588 24.5816C328.658 24.5111 328.697 24.4156 328.696 24.3163C328.695 24.217 328.654 24.1222 328.583 24.0532C325.438 21.1104 320.567 21.1104 317.422 24.0532C317.351 24.1222 317.311 24.217 317.31 24.3163C317.309 24.4157 317.348 24.5112 317.417 24.5816L318.738 25.9246C318.874 26.0618 319.095 26.0646 319.234 25.9311C320.266 24.991 321.609 24.4701 323.001 24.4695ZM325.541 27.6748C325.612 27.605 325.65 27.509 325.648 27.4094C325.646 27.3098 325.604 27.2155 325.53 27.1487C324.07 25.9067 321.932 25.9067 320.473 27.1487C320.399 27.2154 320.356 27.3097 320.354 27.4093C320.352 27.5089 320.391 27.6049 320.461 27.6748L322.748 29.9951C322.815 30.0633 322.906 30.1017 323.001 30.1017C323.097 30.1017 323.188 30.0633 323.255 29.9951L325.541 27.6748Z" fill="black"/>
<path d="M339.432 20.5906C339.432 19.9031 339.989 19.3457 340.677 19.3457H357.794C358.481 19.3457 359.039 19.9031 359.039 20.5906V26.5038C359.039 27.1914 358.481 27.7487 357.794 27.7487H340.677C339.989 27.7487 339.432 27.1914 339.432 26.5038V20.5906Z" fill="black"/>
<path opacity="0.4" d="M357.794 17.4785C359.513 17.4785 360.906 18.872 360.906 20.5908V26.5039C360.906 28.2227 359.513 29.6162 357.794 29.6162H340.677C338.958 29.6162 337.564 28.2227 337.564 26.5039V20.5908C337.564 18.872 338.958 17.4785 340.677 17.4785H357.794ZM340.677 18.4121C339.474 18.4121 338.498 19.3876 338.498 20.5908V26.5039C338.498 27.7071 339.474 28.6826 340.677 28.6826H357.794C358.997 28.6826 359.973 27.7071 359.973 26.5039V20.5908C359.973 19.3876 358.997 18.4121 357.794 18.4121H340.677ZM361.84 21.5811C362.732 21.792 363.395 22.5915 363.396 23.5479C363.395 24.5041 362.732 25.3027 361.84 25.5137V21.5811Z" fill="black"/>
<path d="M292.122 24.3242C292.712 24.3242 293.19 24.8019 293.19 25.3916V28.0625C293.19 28.6523 292.712 29.1309 292.122 29.1309H291.055C290.465 29.1309 289.986 28.6523 289.986 28.0625V25.3916C289.987 24.8019 290.465 24.3242 291.055 24.3242H292.122ZM297.026 22.7217C297.562 22.7219 297.997 23.1572 297.997 23.6934V28.1602C297.997 28.6961 297.562 29.1306 297.026 29.1309H295.764C295.228 29.1309 294.793 28.6963 294.793 28.1602V23.6934C294.793 23.1571 295.227 22.7217 295.764 22.7217H297.026ZM301.833 20.5859C302.369 20.5862 302.804 21.0205 302.804 21.5566V28.1592C302.804 28.6953 302.369 29.1306 301.833 29.1309H300.57C300.034 29.1309 299.6 28.6955 299.6 28.1592V21.5566C299.6 21.0204 300.034 20.5859 300.57 20.5859H301.833ZM306.639 18.4492C307.175 18.4492 307.61 18.8838 307.61 19.4199V28.1592C307.61 28.6955 307.175 29.1309 306.639 29.1309H305.377C304.841 29.1309 304.405 28.6955 304.405 28.1592V19.4199C304.405 18.8838 304.841 18.4492 305.377 18.4492H306.639Z" fill="black"/>
<path d="M41.2451 30.5371V20.3215H41.1939L38.0106 22.5063V20.4837L41.228 18.2221H43.4043V30.5371H41.2451ZM50.4796 18.0087C53.1935 18.0087 55.4551 19.9119 55.4551 24.2303V24.2473C55.4551 28.3182 53.569 30.7505 50.4284 30.7505C48.1497 30.7505 46.4428 29.4362 46.0588 27.5757L46.0417 27.4818H48.2265L48.2521 27.5586C48.585 28.4035 49.336 28.9497 50.4369 28.9497C52.4169 28.9497 53.2447 27.0551 53.33 24.7252C53.3386 24.5972 53.3471 24.4692 53.3471 24.3327H53.2959C52.8094 25.4592 51.5805 26.3126 49.9163 26.3126C47.5438 26.3126 45.8711 24.6058 45.8711 22.293V22.2759C45.8711 19.7924 47.8254 18.0087 50.4796 18.0087ZM50.4796 24.6143C51.8877 24.6143 52.9631 23.6243 52.9631 22.2503V22.2418C52.9631 20.8763 51.8877 19.8095 50.5052 19.8095C49.1397 19.8095 48.0388 20.8677 48.0388 22.1991V22.2162C48.0388 23.6158 49.0799 24.6143 50.4796 24.6143ZM57.8536 22.4807C57.1623 22.4807 56.6161 21.9345 56.6161 21.2432C56.6161 20.552 57.1623 20.0143 57.8536 20.0143C58.5448 20.0143 59.0825 20.552 59.0825 21.2432C59.0825 21.9345 58.5448 22.4807 57.8536 22.4807ZM57.8536 28.7449C57.1623 28.7449 56.6161 28.1987 56.6161 27.5074C56.6161 26.8162 57.1623 26.2785 57.8536 26.2785C58.5448 26.2785 59.0825 26.8162 59.0825 27.5074C59.0825 28.1987 58.5448 28.7449 57.8536 28.7449ZM65.0995 30.7505C62.0784 30.7505 60.2606 28.3011 60.2606 24.3839V24.3668C60.2606 20.4496 62.0784 18.0087 65.0995 18.0087C68.1121 18.0087 69.9385 20.4496 69.9385 24.3668V24.3839C69.9385 28.3011 68.1121 30.7505 65.0995 30.7505ZM65.0995 28.9497C66.7552 28.9497 67.7196 27.2258 67.7196 24.3839V24.3668C67.7196 21.5249 66.7552 19.818 65.0995 19.818C63.4353 19.818 62.4795 21.5249 62.4795 24.3668V24.3839C62.4795 27.2258 63.4353 28.9497 65.0995 28.9497ZM71.1166 30.5371V29.0351L75.4691 24.7935C77.082 23.2147 77.4319 22.5917 77.4319 21.6785V21.6614C77.4234 20.5605 76.5956 19.7753 75.4093 19.7753C74.0438 19.7753 73.088 20.6885 73.0624 21.8748V21.9345H70.9971V21.8748C70.9971 19.6217 72.8917 18.0087 75.3922 18.0087C77.8587 18.0087 79.5826 19.5023 79.5826 21.5334V21.5505C79.5826 23.0013 78.9084 23.9828 76.7407 26.0651L74.0268 28.6425V28.7364H79.7703V30.5371H71.1166Z" fill="black"/>
</svg>
