<svg xmlns="http://www.w3.org/2000/svg" width="18" height="18" viewBox="0 0 18 18" fill="none">
  <path d="M16.2667 3.65761C16.398 3.65087 16.5288 3.68069 16.6445 3.74381C16.7603 3.80693 16.8566 3.9009 16.9229 4.01538C16.9892 4.12986 17.0229 4.26043 17.0202 4.39271C17.0176 4.525 16.9787 4.65388 16.9079 4.7652L10.507 14.8242C10.4437 14.9238 10.3568 15.0061 10.2542 15.0638C10.1515 15.1215 10.0362 15.1527 9.91853 15.1547C9.80083 15.1568 9.68437 15.1296 9.57948 15.0755C9.47459 15.0215 9.38451 14.9422 9.31723 14.8449L7.40414 12.0763L6.39057 12.7498C5.85464 13.1063 5.15557 12.632 5.28298 11.9976L5.74846 9.68003L2.81202 5.43083C2.73917 5.32538 2.6956 5.20233 2.68584 5.07443C2.67607 4.94654 2.70046 4.81843 2.75648 4.70338C2.81249 4.58834 2.8981 4.49053 3.00444 4.42009C3.11078 4.34964 3.23398 4.30913 3.3613 4.30273L16.2667 3.65761ZM14.1751 6.3868L7.63247 9.88895L9.87809 13.1393L14.1751 6.3868ZM13.2514 5.24967L4.72107 5.67501L6.80974 8.69628L13.2517 5.24826L13.2514 5.24967Z" fill="#F3F4F6"/>
</svg>